<svg xmlns="http://www.w3.org/2000/svg" xmlns:xlink="http://www.w3.org/1999/xlink" version="1.1" width="1000" height="1000" viewBox="0 0 1000 1000" xml:space="preserve">
<desc>Created with Fabric.js 3.5.0</desc>
<defs>
</defs>
<rect x="0" y="0" width="100%" height="100%" fill="#17fff8"/>
<g transform="matrix(0.4 0 0 0.4 500 500)" id="322033">
<g style="" vector-effect="non-scaling-stroke">
		<g transform="matrix(12.9698 0 0 12.9698 0.0034 0.0034)">
<path style="stroke: none; stroke-width: 1; stroke-dasharray: none; stroke-linecap: butt; stroke-dashoffset: 0; stroke-linejoin: miter; stroke-miterlimit: 4; is-custom-font: none; font-file-url: none; fill: rgb(255,255,255); fill-rule: evenodd; opacity: 1;" transform=" translate(-96.378, -96.378)" d="M 0 0 h 192.756 v 192.756 H 0 V 0 z" stroke-linecap="round"/>
</g>
		<g transform="matrix(12.9698 0 0 12.9698 0.0163 0.0063)">
<path style="stroke: none; stroke-width: 1; stroke-dasharray: none; stroke-linecap: butt; stroke-dashoffset: 0; stroke-linejoin: miter; stroke-miterlimit: 4; is-custom-font: none; font-file-url: none; fill: rgb(0,40,255); fill-rule: evenodd; opacity: 1;" transform=" translate(-96.379, -96.3783)" d="M 133.057 137.084 l 0.066 -0.086 c 3.297 -3.734 6.041 -8.02 8.242 -12.414 c 3.623 2.416 8.016 3.955 12.633 3.955 c 10.215 0 19.334 -5.162 20.873 -15.709 h -17.906 V 98.217 h 32.957 v 43.943 h -13.625 v -7.908 c -5.932 5.604 -13.182 9.008 -22.299 9.008 c -7.691 0 -14.834 -2.197 -20.875 -6.262 c -0.328 -0.109 -0.658 -0.33 -0.988 -0.549 c -10.107 -7.361 -16.809 -19.664 -16.809 -33.617 c 0 -4.066 0.441 -7.799 1.209 -11.426 l -16.26 51.195 H 84.457 L 65.67 83.716 c 0.112 1.21 0.33 2.417 0.33 3.626 H 50.401 c -0.112 -0.55 -0.219 -1.209 -0.441 -1.867 c -0.769 -2.747 -2.636 -4.944 -3.953 -5.823 c -0.441 -0.331 -1.21 -0.768 -2.197 -1.209 c -1.21 -0.55 -2.857 -1.099 -4.725 -1.537 c -2.197 5.055 -3.845 10.545 -4.505 16.26 c 0.549 0.108 1.099 0.219 1.759 0.219 c 1.978 0.33 4.614 0.55 7.471 0.88 c 2.085 0.219 4.172 0.549 6.15 0.988 c 4.286 0.876 8.461 2.197 11.315 4.395 c 5.604 4.613 8.351 10.986 7.472 20.65 c -0.661 6.924 -5.055 13.516 -9.557 17.029 c -1.648 1.1 -4.617 2.307 -7.583 3.297 c 1.759 2.527 8.021 6.701 12.084 8.9 h 54.163 c 4.834 -2.639 10.984 -7.584 14.279 -11.428 v 0.111 c 0.33 -0.33 0.66 -0.66 0.988 -1.102 a 0.679 0.679 0 0 1 -0.064 -0.021 z m -91.444 -8.875 c 2.746 4.613 6.042 8.789 9.888 12.414 c -4.836 1.648 -10.548 2.967 -16.92 2.967 c -9.887 0 -17.905 -3.406 -22.299 -6.922 c -4.616 -3.734 -9.446 -11.535 -9.446 -20.762 H 19.2 c 0 9.115 9.449 12.963 17.027 12.963 c 1.76 0 3.627 -0.33 5.386 -0.66 z m -6.811 -19.336 c -0.552 -3.074 -0.661 -6.041 -0.661 -9.115 c 0 -2.201 0.109 -4.395 0.331 -6.484 c -7.363 -0.879 -13.844 -3.296 -13.844 -7.909 c 0 -5.712 6.591 -8.789 12.084 -9.008 c 1.979 -0.111 4.175 0.219 6.262 0.657 a 55.756 55.756 0 0 1 8.239 -13.402 c -3.623 -0.988 -7.909 -1.428 -12.192 -1.428 c -9.338 0 -18.018 3.407 -23.731 8.35 c -5.273 4.613 -7.029 10.434 -7.029 17.688 c 0 4.284 1.756 7.471 6.264 12.085 c 3.842 4.064 16.584 7.248 24.277 8.566 z m 55.807 -65.64 c 16.205 -0.055 31.141 7.031 41.525 18.292 c 1.336 1.449 2.578 2.788 3.754 4.281 c 5.006 -2.344 10.965 -3.625 17.668 -3.731 c 19.445 0.108 33.287 8.678 36.254 26.915 h -16.588 c -2.857 -7.36 -8.131 -12.744 -19.666 -12.744 c -3.844 0 -7.471 1.209 -10.547 3.076 c -1.848 -4.783 -4.342 -9.354 -7.27 -13.281 a 44.477 44.477 0 0 0 -3.605 2.076 c -6.15 3.954 -10.656 9.669 -13.291 16.479 l 6.918 -22.521 h -16.037 l -17.358 55.917 l -1.978 -5.932 L 74.9 62.075 H 58.86 l 4.284 13.292 c -1.429 -2.747 -3.405 -5.053 -5.712 -6.919 c -2.197 -1.758 -4.725 -3.077 -7.471 -4.064 c -0.769 -0.222 -1.648 -0.552 -2.525 -0.771 c 0.77 -0.988 1.648 -1.978 2.525 -2.966 c 10.216 -10.66 24.444 -17.358 40.648 -17.414 z m -46.799 67.29 a 37.478 37.478 0 0 0 -5.715 -1.209 c -0.768 -0.221 -1.975 -0.33 -3.185 -0.551 c 1.099 6.922 3.515 13.514 6.811 19.445 c 0.771 -0.107 1.429 -0.219 2.089 -0.33 c 1.317 -0.219 2.305 -0.439 2.966 -0.658 c 1.206 -0.33 2.308 -1.098 3.185 -2.307 c 1.867 -2.086 2.857 -5.055 2.419 -7.252 c -0.441 -1.426 -1.209 -2.635 -2.419 -3.734 c -1.538 -1.536 -3.735 -2.636 -6.151 -3.404 z m 88.325 -16.7 c -0.879 2.855 -1.318 5.935 -1.318 9.009 c 0 3.186 0.439 6.152 1.318 8.898 c 1.76 5.273 5.055 9.777 9.449 12.744 a 57.16 57.16 0 0 0 5.602 -24.717 c 0 -7.142 -1.318 -14.064 -3.955 -20.546 c -5.165 3.185 -9.01 8.461 -11.096 14.612 z" stroke-linecap="round"/>
</g>
</g>
</g>
</svg>